<mxfile host="app.diagrams.net" modified="2023-10-16T16:49:12.311Z" agent="Mozilla/5.0 (X11; Linux x86_64) AppleWebKit/537.36 (KHTML, like Gecko) Chrome/114.0.0.0 Safari/537.36" etag="4ikaCXDvLPRJRpHxYlri" version="22.0.4" type="device">
  <diagram name="Página-1" id="25VLdNLQ0_P-c4YyAis7">
    <mxGraphModel dx="1366" dy="732" grid="1" gridSize="10" guides="1" tooltips="1" connect="1" arrows="1" fold="1" page="1" pageScale="1" pageWidth="827" pageHeight="583" math="0" shadow="0">
      <root>
        <mxCell id="0" />
        <mxCell id="1" parent="0" />
        <mxCell id="c5qAtYpECKJjgQ6F6-PQ-1" value="Cliente" style="whiteSpace=wrap;html=1;align=center;" vertex="1" parent="1">
          <mxGeometry x="363" y="271" width="100" height="40" as="geometry" />
        </mxCell>
        <mxCell id="c5qAtYpECKJjgQ6F6-PQ-17" style="edgeStyle=orthogonalEdgeStyle;rounded=0;orthogonalLoop=1;jettySize=auto;html=1;" edge="1" parent="1" source="c5qAtYpECKJjgQ6F6-PQ-2" target="c5qAtYpECKJjgQ6F6-PQ-1">
          <mxGeometry relative="1" as="geometry" />
        </mxCell>
        <mxCell id="c5qAtYpECKJjgQ6F6-PQ-2" value="Derivado" style="ellipse;whiteSpace=wrap;html=1;align=center;dashed=1;" vertex="1" parent="1">
          <mxGeometry x="363" y="150" width="100" height="40" as="geometry" />
        </mxCell>
        <mxCell id="c5qAtYpECKJjgQ6F6-PQ-18" style="edgeStyle=orthogonalEdgeStyle;rounded=0;orthogonalLoop=1;jettySize=auto;html=1;" edge="1" parent="1" source="c5qAtYpECKJjgQ6F6-PQ-4" target="c5qAtYpECKJjgQ6F6-PQ-1">
          <mxGeometry relative="1" as="geometry" />
        </mxCell>
        <mxCell id="c5qAtYpECKJjgQ6F6-PQ-4" value="Atributo simple" style="ellipse;whiteSpace=wrap;html=1;align=center;" vertex="1" parent="1">
          <mxGeometry x="210" y="271" width="100" height="40" as="geometry" />
        </mxCell>
        <mxCell id="c5qAtYpECKJjgQ6F6-PQ-16" style="edgeStyle=orthogonalEdgeStyle;rounded=0;orthogonalLoop=1;jettySize=auto;html=1;entryX=1;entryY=0.5;entryDx=0;entryDy=0;" edge="1" parent="1" source="c5qAtYpECKJjgQ6F6-PQ-5" target="c5qAtYpECKJjgQ6F6-PQ-1">
          <mxGeometry relative="1" as="geometry" />
        </mxCell>
        <mxCell id="c5qAtYpECKJjgQ6F6-PQ-5" value="Multivaluado" style="ellipse;shape=doubleEllipse;margin=3;whiteSpace=wrap;html=1;align=center;" vertex="1" parent="1">
          <mxGeometry x="520" y="271" width="100" height="40" as="geometry" />
        </mxCell>
        <mxCell id="c5qAtYpECKJjgQ6F6-PQ-15" style="edgeStyle=orthogonalEdgeStyle;rounded=0;orthogonalLoop=1;jettySize=auto;html=1;" edge="1" parent="1" source="c5qAtYpECKJjgQ6F6-PQ-6" target="c5qAtYpECKJjgQ6F6-PQ-1">
          <mxGeometry relative="1" as="geometry">
            <Array as="points">
              <mxPoint x="310" y="350" />
              <mxPoint x="390" y="350" />
            </Array>
          </mxGeometry>
        </mxCell>
        <mxCell id="c5qAtYpECKJjgQ6F6-PQ-6" value="PK" style="ellipse;whiteSpace=wrap;html=1;align=center;fontStyle=4;" vertex="1" parent="1">
          <mxGeometry x="260" y="360" width="100" height="40" as="geometry" />
        </mxCell>
        <mxCell id="c5qAtYpECKJjgQ6F6-PQ-19" style="edgeStyle=orthogonalEdgeStyle;rounded=0;orthogonalLoop=1;jettySize=auto;html=1;entryX=0.75;entryY=1;entryDx=0;entryDy=0;" edge="1" parent="1" source="c5qAtYpECKJjgQ6F6-PQ-8" target="c5qAtYpECKJjgQ6F6-PQ-1">
          <mxGeometry relative="1" as="geometry" />
        </mxCell>
        <mxCell id="c5qAtYpECKJjgQ6F6-PQ-8" value="Dirección" style="ellipse;whiteSpace=wrap;html=1;align=center;" vertex="1" parent="1">
          <mxGeometry x="450" y="360" width="100" height="40" as="geometry" />
        </mxCell>
        <mxCell id="c5qAtYpECKJjgQ6F6-PQ-13" style="edgeStyle=orthogonalEdgeStyle;rounded=0;orthogonalLoop=1;jettySize=auto;html=1;" edge="1" parent="1" source="c5qAtYpECKJjgQ6F6-PQ-9">
          <mxGeometry relative="1" as="geometry">
            <mxPoint x="500" y="410" as="targetPoint" />
          </mxGeometry>
        </mxCell>
        <mxCell id="c5qAtYpECKJjgQ6F6-PQ-9" value="Calle" style="ellipse;whiteSpace=wrap;html=1;align=center;" vertex="1" parent="1">
          <mxGeometry x="450" y="480" width="100" height="40" as="geometry" />
        </mxCell>
        <mxCell id="c5qAtYpECKJjgQ6F6-PQ-14" style="edgeStyle=orthogonalEdgeStyle;rounded=0;orthogonalLoop=1;jettySize=auto;html=1;" edge="1" parent="1" source="c5qAtYpECKJjgQ6F6-PQ-10">
          <mxGeometry relative="1" as="geometry">
            <mxPoint x="480" y="410" as="targetPoint" />
          </mxGeometry>
        </mxCell>
        <mxCell id="c5qAtYpECKJjgQ6F6-PQ-10" value="Provincia" style="ellipse;whiteSpace=wrap;html=1;align=center;" vertex="1" parent="1">
          <mxGeometry x="330" y="440" width="100" height="40" as="geometry" />
        </mxCell>
        <mxCell id="c5qAtYpECKJjgQ6F6-PQ-12" style="edgeStyle=orthogonalEdgeStyle;rounded=0;orthogonalLoop=1;jettySize=auto;html=1;" edge="1" parent="1" source="c5qAtYpECKJjgQ6F6-PQ-11">
          <mxGeometry relative="1" as="geometry">
            <mxPoint x="520" y="410" as="targetPoint" />
          </mxGeometry>
        </mxCell>
        <mxCell id="c5qAtYpECKJjgQ6F6-PQ-11" value="CP" style="ellipse;whiteSpace=wrap;html=1;align=center;" vertex="1" parent="1">
          <mxGeometry x="560" y="420" width="100" height="40" as="geometry" />
        </mxCell>
      </root>
    </mxGraphModel>
  </diagram>
</mxfile>
